Coordinates
version=1
nRows=7
nColumns=46
inDegrees=yes

Units are S.I. units (second, meters, Newtons, ...)
Angles are in degrees.

endheader
time	pelvis_tilt	pelvis_list	pelvis_rotation	pelvis_tx	pelvis_ty	pelvis_tz	bb_angle	bb_tx	bb_ty	bb_tz	hip_flexion_r	hip_adduction_r	hip_rotation_r	knee_angle_r	knee_angle_r_beta	ankle_angle_r	subtalar_angle_r	mtp_angle_r	crank_angle_r	hip_flexion_l	hip_adduction_l	hip_rotation_l	knee_angle_l	knee_angle_l_beta	ankle_angle_l	subtalar_angle_l	mtp_angle_l	crank_angle_l	lumbar_extension	lumbar_bending	lumbar_rotation	arm_flex_r	arm_add_r	arm_rot_r	elbow_flex_r	pro_sup_r	wrist_flex_r	wrist_dev_r	arm_flex_l	arm_add_l	arm_rot_l	elbow_flex_l	pro_sup_l	wrist_flex_l	wrist_dev_l
      2.50500000	    -21.12668275	      3.61653759	     14.87586884	      0.05893122	      1.10688139	     -0.25211958	      0.00000000	      0.50000000	      0.00000000	      0.25000000	     58.56343226	    -12.14057515	      2.74274981	     74.41383041	      1.29876635	    -15.57887228	    -18.28787309	      0.00000000	      0.00000000	     80.30429687	      7.41851889	     -0.37671883	     74.02337468	      1.29195161	     18.07086270	     -4.01994407	      0.00000000	      0.00000000	    -57.22396563	     -1.23821138	     -8.46087687	     78.86528777	    -31.10849345	     18.63043954	     67.13293377	     46.11777775	      0.00000000	      0.00000000	     89.80888004	     -9.85335536	     26.31567746	     82.56406082	     29.54602558	      0.00000000	      0.00000000
      2.51000000	    -20.22405279	      4.14148356	     14.64771083	      0.05742643	      1.10846087	     -0.25133618	      0.00000000	      0.50000000	      0.00000000	      0.25000000	     58.29190020	    -12.21753636	      3.10230456	     75.80991599	      1.32313264	    -15.28637748	    -18.29016914	      0.00000000	      0.00000000	     78.45173061	      7.52281319	     -0.41582861	     72.27769340	      1.26148373	     17.30105701	     -4.22549375	      0.00000000	      0.00000000	    -59.22688040	     -2.14899131	     -7.31430960	     78.56070242	    -34.33601830	     17.68710747	     69.33882310	     46.52168265	      0.00000000	      0.00000000	     89.67743302	    -14.51268401	     35.30580962	     75.27850410	     28.75319313	      0.00000000	      0.00000000
      2.51500000	    -20.20664612	      4.07063871	     14.36315693	      0.05660591	      1.10846803	     -0.25136188	      0.00000000	      0.50000000	      0.00000000	      0.25000000	     58.94718688	    -11.99735518	      3.24490902	     77.12633865	      1.34610855	    -14.87314687	    -18.26660171	      0.00000000	      0.00000000	     77.63856486	      7.49911911	     -0.02152975	     70.63931024	      1.23288855	     16.64224294	     -4.40618235	      0.00000000	      0.00000000	    -59.24510162	     -2.26338333	     -6.87570425	     78.48604768	    -34.56014313	     17.45251351	     69.84818945	     46.48142532	      0.00000000	      0.00000000	     89.68031754	    -14.18638534	     35.09521611	     74.88767968	     30.05468671	      0.00000000	      0.00000000
      2.52000000	    -20.11995449	      4.05069005	     14.00598652	      0.05583884	      1.10867968	     -0.25123783	      0.00000000	      0.50000000	      0.00000000	      0.25000000	     59.53745992	    -11.74723274	      3.43895880	     78.42737615	      1.36881594	    -14.45678626	    -18.09876011	      0.00000000	      0.00000000	     76.71646208	      7.36948329	      0.26620309	     68.97434664	      1.20382945	     15.89735572	     -4.50774382	      0.00000000	      0.00000000	    -59.40988290	     -2.42953663	     -6.58188174	     78.50034360	    -34.38862285	     16.79661198	     70.43732723	     46.35912509	      0.00000000	      0.00000000	     89.67743836	    -14.10498453	     34.63087073	     74.94758479	     31.47725603	      0.00000000	      0.00000000
      2.52500000	    -20.14003787	      3.78974372	     13.60975344	      0.05499174	      1.10847999	     -0.25118430	      0.00000000	      0.50000000	      0.00000000	      0.25000000	     60.28102744	    -11.32368766	      3.47933660	     79.73958014	      1.39171822	    -14.00907710	    -18.01275213	      0.00000000	      0.00000000	     76.02324071	      7.13110684	      0.78726436	     67.44443377	      1.17712743	     15.16921305	     -4.65550818	      0.00000000	      0.00000000	    -59.19574578	     -2.51847413	     -5.91637395	     79.06121315	    -35.00860036	     18.32783696	     69.61288217	     46.33631637	      0.00000000	      0.00000000	     89.68261614	    -13.70514704	     34.70113077	     74.10113408	     31.97318735	      0.00000000	      0.00000000
      2.53000000	    -20.03053745	      3.66969885	     13.20952927	      0.05433778	      1.10885045	     -0.25120910	      0.00000000	      0.50000000	      0.00000000	      0.25000000	     60.82833212	    -11.01645501	      3.54690492	     80.95550631	      1.41294013	    -13.62925751	    -17.94781210	      0.00000000	      0.00000000	     75.09159401	      6.90272101	      1.12930895	     65.82008061	      1.14877712	     14.38546752	     -4.74507384	      0.00000000	      0.00000000	    -59.31703093	     -2.63848609	     -5.60290623	     79.17950635	    -34.83599700	     18.06626976	     69.82375114	     46.26457380	      0.00000000	      0.00000000	     89.67922281	    -13.77567474	     34.44884445	     74.23084598	     32.73606238	      0.00000000	      0.00000000
      2.53500000	    -20.03845373	      3.43697896	     12.80443682	      0.05348202	      1.10889305	     -0.25131308	      0.00000000	      0.50000000	      0.00000000	      0.25000000	     61.56293721	    -10.65614966	      3.59005003	     82.22020527	      1.43501329	    -13.12481626	    -17.63514227	      0.00000000	      0.00000000	     74.34342376	      6.66378809	      1.60512920	     64.23620292	      1.12113324	     13.37756870	     -4.86303236	      0.00000000	      0.00000000	    -59.15957706	     -2.68435832	     -5.08951713	     79.88473073	    -35.14049486	     19.29158915	     68.98351639	     46.26924029	      0.00000000	      0.00000000	     89.67745260	    -13.51805396	     34.24992994	     73.67168732	     32.91397524	      0.00000000	      0.00000000
